<!DOCTYPE svg PUBLIC "-//W3C//DTD SVG 1.1//EN" "http://www.w3.org/Graphics/SVG/1.1/DTD/svg11.dtd">
<!-- Uploaded to: SVG Repo, www.svgrepo.com, Transformed by: SVG Repo Mixer Tools -->
<svg width="800px" height="800px" viewBox="0 0 320 320" fill="none" xmlns="http://www.w3.org/2000/svg">
<g id="SVGRepo_bgCarrier" stroke-width="0"/>
<g id="SVGRepo_tracerCarrier" stroke-linecap="round" stroke-linejoin="round"/>
<g id="SVGRepo_iconCarrier"> <path fill-rule="evenodd" clip-rule="evenodd" d="M39.1573 90C33.0971 102 26.51 131.249 35.1574 155.5C39.4955 167.666 46.3136 176.826 53.7062 184.194L54.5704 141.5L55.1575 112.5L92.6575 93.5001L122.62 102.5C125.964 95.7467 129.718 89.0984 133.807 83.0001C131.737 80.8105 130.026 78.7262 129.197 77.687C128.885 77.2952 128.922 76.7354 129.277 76.381L144.819 60.8391C145.033 60.6248 145.331 60.5191 145.63 60.5684C146.748 60.7522 149.636 61.3597 152.025 63.0001C152.025 63.0001 169.657 59.0001 181.657 63.0001C183.424 63.5888 184.994 64.2323 186.396 65.0001C186.396 65.0001 198.157 62.5001 202.657 63.5001C206.358 64.3225 207.687 67.7381 208.157 71.5001C208.657 75.5001 208.157 86 208.157 86C208.304 86.0001 208.45 86.0001 208.595 86.0001C209.99 86.0001 211.367 86.0001 212.894 86.0699C214.309 86.1347 215.853 86.2595 217.657 86.5001C221.763 87.0475 223.845 89.4384 224.657 93.5001C225.085 95.6357 224.255 98.7038 222.85 102C219.32 110.28 212.157 120 212.157 120L262.657 131.5V160.5V219.235C278.261 204.528 286.431 191.203 288.157 169C290.239 142.225 279.67 117.5 269.657 98C255.838 71.0876 233.657 57.0306 214.657 48.5C195.657 39.9694 165.157 34 137.157 34C109.157 34 84.6572 45.5001 70.1573 54.5C55.6574 63.4999 45.2174 78.0001 39.1573 90Z" fill=""/> <path d="M92.6572 93.5L55.1572 112.5M92.6572 93.5L122.62 102.5M92.6572 93.5V123.823M55.1572 112.5L54.5702 141.5M55.1572 112.5L92.6572 123.823M224.157 286L53.3926 236.214C52.9587 236.088 52.6636 235.686 52.6727 235.234L53.3556 201.5M224.157 286L262.252 257.8C262.507 257.611 262.657 257.313 262.657 256.996V226M224.157 286V249.5M262.657 131.5L212.157 120M262.657 131.5L224.157 152.5M262.657 131.5V160.5M212.157 120C212.157 120 219.319 110.28 222.849 102M212.157 120C205.379 121.745 200.847 122.116 197.157 120.923M224.157 152.5V182M224.157 152.5L194.157 146.714M224.157 182L262.657 160.5M224.157 182V249.5M262.657 160.5V226M224.157 249.5L262.657 226M224.157 249.5L141.91 226.386M152.024 63C149.635 61.3596 146.747 60.7521 145.63 60.5683C145.331 60.5191 145.033 60.6247 144.818 60.839L129.276 76.3809C128.922 76.7353 128.884 77.2951 129.197 77.6869C130.026 78.7261 131.737 80.8104 133.806 83M152.024 63C152.818 63.5451 153.557 64.2044 154.157 65C159.263 71.7675 152.657 84.5 150.657 87C148.169 90.1099 144.017 91.1382 140.657 89C138.366 87.5422 135.902 85.2171 133.806 83M152.024 63C152.024 63 169.657 59 181.657 63C183.423 63.5887 184.994 64.2322 186.396 65M188.657 114.302C190.52 116.584 192.267 118.307 194.157 119.506M196.157 109.5C189.784 114.383 184.631 116.701 176.657 117.775M167.157 118.5C170.777 118.372 173.887 118.148 176.657 117.775M212.894 86.0699C214.309 86.1346 215.853 86.2594 217.657 86.5C221.763 87.0474 223.845 89.4383 224.657 93.5C225.084 95.6356 224.255 98.7037 222.849 102M212.894 86.0699C212.638 94.6532 214.9 98.1022 222.849 102M212.894 86.0699C211.207 85.9927 209.703 86.0008 208.157 85.9999M176.657 117.775C176.657 117.775 175.037 126.317 179.657 129C185.775 132.552 194.157 119.506 194.157 119.506M194.157 119.506C195.11 120.11 196.099 120.581 197.157 120.923M133.806 83C124.161 97.386 116.377 114.832 111.459 129.5M197.157 120.923C197.157 120.923 198.657 141 197.157 145.5C196.684 146.921 195.538 146.961 194.157 146.714M194.157 146.714C191.779 146.291 188.704 145.021 187.157 148.5C185.834 151.478 181.693 162.663 175.872 171.899M111.459 129.5C107.997 139.827 105.956 148.776 105.688 154.31M111.459 129.5L92.6572 123.823M54.5702 141.5L53.3556 201.5M54.5702 141.5L95.1572 151.671M224.157 184L175.872 171.899M175.872 171.899C173.343 175.912 170.498 179.556 167.428 182M151.444 165.777C152.418 153.225 156.701 138.938 157.157 137.5C157.598 136.112 140.157 133.5 138.157 135.5C136.99 136.668 130.88 148.912 124.803 159.101M151.444 165.777L124.803 159.101M151.444 165.777C150.999 171.51 151.244 176.88 152.859 180.5M124.803 159.101C120.47 166.365 116.154 172.584 113.657 173C109.983 173.612 107.809 171.6 106.676 167.078M105.688 154.31C105.667 154.727 105.657 155.123 105.657 155.5C105.657 160.346 105.958 164.215 106.676 167.078M105.688 154.31L95.1572 151.671M53.3556 201.5L87.1836 211.007M95.1572 151.671C84.7853 175.536 83.1787 196.734 87.1836 211.007M152.859 180.5C153.941 182.926 155.639 184.566 158.157 185C161.396 185.558 164.513 184.321 167.428 182M152.859 180.5C143.554 200.727 133.952 214.009 125.007 221.636M106.676 167.078C98.4809 186.35 96.3182 202.307 98.1391 214.085M167.428 182C160.414 203.054 151.265 217.578 141.91 226.386M87.1836 211.007C92.4586 229.805 107.468 236.591 125.007 221.636M98.1391 214.085L125.007 221.636M98.1391 214.085C101.872 238.228 122.343 244.81 141.91 226.386M62.1572 189V193.5M60.6572 224V229.5M215.157 192.5V197.5M206.657 202.5V208M215.157 208V213M251.157 248.5L255.657 246M248.157 258.5L252.157 256.5M169.657 81.5V89.5M181.657 81.5V89.5M242.157 88C250.618 80.3111 255.048 76.7269 261.157 74.5M249.657 98C259.167 96.9372 263.75 96.6374 269.657 97M246.657 110.5C254.717 110.927 258.822 111.855 265.657 114.302M186.396 65C189.587 66.7483 191.903 69.1413 193.657 73C196.157 78.5 193.419 84.7828 199.157 85.5C202.941 85.9729 205.606 85.9985 208.157 85.9999M186.396 65C186.396 65 198.157 62.5 202.657 63.5C206.358 64.3224 207.687 67.738 208.157 71.5C208.657 75.5 208.157 85.9999 208.157 85.9999" stroke="#1061cc" stroke-width="5" stroke-linecap="round"/> </g>
</svg>